<?xml version="1.0" encoding="utf-8"?>
<svg xmlns="http://www.w3.org/2000/svg" viewBox="328.891 248.083 571.132 892.897" width="571.132mm" height="892.897mm">
  <path id="path898-88" d="M 386.355 248.083 C 354.749 248.083 328.891 273.94 328.891 305.546 L 328.891 1083.52 C 328.891 1115.12 354.749 1140.98 386.355 1140.98 L 842.56 1140.98 C 874.166 1140.98 900.023 1115.12 900.023 1083.52 L 900.023 305.546 C 900.023 273.94 874.166 248.083 842.56 248.083 L 386.355 248.083 Z" style="color:#000000;font-style:normal;font-variant:normal;font-weight:normal;font-stretch:normal;font-size:medium;line-height:normal;font-family:sans-serif;font-variant-ligatures:normal;font-variant-position:normal;font-variant-caps:normal;font-variant-numeric:normal;font-variant-alternates:normal;font-feature-settings:normal;text-indent:0;text-align:start;text-decoration:none;text-decoration-line:none;text-decoration-style:solid;text-decoration-color:#000000;letter-spacing:normal;word-spacing:normal;text-transform:none;writing-mode:lr-tb;direction:ltr;text-orientation:mixed;dominant-baseline:auto;baseline-shift:baseline;text-anchor:start;white-space:normal;shape-padding:0;clip-rule:nonzero;display:inline;overflow:visible;visibility:visible;opacity:1;isolation:auto;mix-blend-mode:normal;color-interpolation:sRGB;color-interpolation-filters:linearRGB;solid-color:#000000;solid-opacity:1;vector-effect:none;fill:#ffffff;fill-opacity:1;fill-rule:nonzero;stroke:none;stroke-width:26.4583;stroke-linecap:round;stroke-linejoin:round;stroke-miterlimit:4;stroke-dasharray:none;stroke-dashoffset:0;stroke-opacity:1;paint-order:fill markers stroke;color-rendering:auto;image-rendering:auto;shape-rendering:auto;text-rendering:auto;enable-background:accumulate"/>
  <path style="color: rgb(0, 0, 0); font-style: normal; font-variant: normal; font-weight: normal; font-stretch: normal; font-size: medium; line-height: normal; font-family: sans-serif; font-feature-settings: normal; text-indent: 0px; text-align: start; text-decoration: none solid rgb(0, 0, 0); letter-spacing: normal; word-spacing: normal; text-transform: none; writing-mode: lr-tb; direction: ltr; text-orientation: mixed; dominant-baseline: auto; baseline-shift: baseline; text-anchor: start; white-space: normal; clip-rule: nonzero; display: inline; overflow: visible; visibility: visible; opacity: 1; isolation: auto; mix-blend-mode: normal; color-interpolation: srgb; color-interpolation-filters: linearrgb; vector-effect: none; fill-opacity: 1; fill-rule: nonzero; stroke: none; stroke-width: 26.4583; stroke-linecap: round; stroke-linejoin: round; stroke-miterlimit: 4; stroke-dasharray: none; stroke-dashoffset: 0; stroke-opacity: 1; paint-order: fill markers; color-rendering: auto; image-rendering: auto; shape-rendering: auto; text-rendering: auto; fill: rgb(0, 0, 255);" d="M 386.326 274.62 L 842.531 274.62 C 859.937 274.62 873.536 288.219 873.536 305.625 L 873.536 403.273 L 355.321 487.805 L 355.321 305.625 C 355.321 288.219 368.921 274.62 386.326 274.62 Z" id="path889-98"/>
  <path style="color: rgb(0, 0, 0); font-style: normal; font-variant: normal; font-weight: normal; font-stretch: normal; font-size: medium; line-height: normal; font-family: sans-serif; font-feature-settings: normal; text-indent: 0px; text-align: start; text-decoration: none solid rgb(0, 0, 0); letter-spacing: normal; word-spacing: normal; text-transform: none; writing-mode: lr-tb; direction: ltr; text-orientation: mixed; dominant-baseline: auto; baseline-shift: baseline; text-anchor: start; white-space: normal; clip-rule: nonzero; display: inline; overflow: visible; visibility: visible; opacity: 1; isolation: auto; mix-blend-mode: normal; color-interpolation: srgb; color-interpolation-filters: linearrgb; vector-effect: none; fill-opacity: 1; fill-rule: nonzero; stroke: none; stroke-width: 26.4583; stroke-linecap: round; stroke-linejoin: round; stroke-miterlimit: 4; stroke-dasharray: none; stroke-dashoffset: 0; stroke-opacity: 1; paint-order: fill markers; color-rendering: auto; image-rendering: auto; shape-rendering: auto; text-rendering: auto; fill: rgb(0, 0, 255);" d="M 873.536 908.851 L 873.536 1083.59 C 873.536 1101 859.937 1114.6 842.531 1114.6 L 386.326 1114.6 C 368.921 1114.6 355.321 1101 355.321 1083.59 L 355.321 993.382 L 873.536 908.851 Z" id="rect4529-0"/>
  <path style="color: rgb(0, 0, 0); font-style: normal; font-variant: normal; font-weight: normal; font-stretch: normal; font-size: medium; line-height: normal; font-family: sans-serif; font-feature-settings: normal; text-indent: 0px; text-align: start; text-decoration: none solid rgb(0, 0, 0); letter-spacing: normal; word-spacing: normal; text-transform: none; writing-mode: lr-tb; direction: ltr; text-orientation: mixed; dominant-baseline: auto; baseline-shift: baseline; text-anchor: start; white-space: normal; clip-rule: nonzero; display: inline; overflow: visible; visibility: visible; opacity: 1; isolation: auto; mix-blend-mode: normal; color-interpolation: srgb; color-interpolation-filters: linearrgb; vector-effect: none; fill-opacity: 1; fill-rule: nonzero; stroke: none; stroke-width: 0.264583px; stroke-linecap: butt; stroke-linejoin: miter; stroke-miterlimit: 4; stroke-dasharray: none; stroke-dashoffset: 0; stroke-opacity: 1; color-rendering: auto; image-rendering: auto; shape-rendering: auto; text-rendering: auto; fill: rgb(0, 0, 255);" d="M 715.935 499.382 C 714.747 499.372 713.558 499.382 712.369 499.406 C 680.666 500.031 648.935 511.584 625.1 529.74 C 593.623 553.716 570.752 586.574 569.189 645.302 L 569.189 645.463 L 660.629 630.177 L 660.592 630.037 C 653.316 602.913 667.211 580.683 686.696 574.605 C 697.492 571.237 705.607 572.307 711.86 575.779 C 718.112 579.252 722.507 585.139 725.822 591.431 C 732.337 603.798 732.452 618.775 728.842 633.474 C 725.232 648.174 717.898 662.591 709.536 673.824 C 664.052 734.921 567.082 858.238 567.082 858.238 L 566.875 858.501 L 828.981 817.806 L 826.297 745.376 L 719.612 762.447 C 719.942 762.076 755.481 722.191 773.35 702.589 C 796.236 677.484 814.221 644.644 817.75 610.841 C 822.306 567.205 801.169 527.331 767.697 511.017 C 751.488 503.117 733.765 499.495 715.939 499.382 L 715.935 499.382 Z M 528.023 542.252 L 400.67 563.428 L 400.67 563.541 L 401.611 633.433 L 446.955 626.016 L 450.789 876.178 L 533.371 863.309 L 528.023 542.252 Z" id="path926-5"/>
  <path id="path929-3" d="M 471.334 304.319 C 470.955 304.319 470.576 304.319 470.197 304.33 C 460.093 304.529 449.98 308.211 442.383 313.998 C 432.351 321.64 425.062 332.112 424.564 350.83 L 424.564 350.881 L 453.707 346.009 L 453.695 345.964 C 451.376 337.319 455.805 330.234 462.015 328.297 C 465.456 327.223 468.042 327.564 470.035 328.671 C 472.028 329.778 473.429 331.654 474.485 333.66 C 476.562 337.601 476.598 342.374 475.447 347.059 C 474.297 351.744 471.959 356.339 469.294 359.919 C 454.798 379.392 423.892 418.695 423.892 418.695 L 423.826 418.779 L 507.363 405.809 L 506.508 382.725 L 472.506 388.165 C 472.611 388.047 483.938 375.335 489.633 369.088 C 496.927 361.086 502.659 350.619 503.784 339.846 C 505.236 325.938 498.499 313.23 487.831 308.03 C 482.665 305.512 477.017 304.358 471.335 304.322 L 471.334 304.319 Z M 411.443 317.982 L 370.854 324.731 L 370.854 324.767 L 371.154 347.043 L 385.606 344.679 L 386.828 424.41 L 413.148 420.308 L 411.443 317.982 Z" style="color:#000000;font-style:normal;font-variant:normal;font-weight:normal;font-stretch:normal;font-size:medium;line-height:normal;font-family:sans-serif;font-variant-ligatures:normal;font-variant-position:normal;font-variant-caps:normal;font-variant-numeric:normal;font-variant-alternates:normal;font-feature-settings:normal;text-indent:0;text-align:start;text-decoration:none;text-decoration-line:none;text-decoration-style:solid;text-decoration-color:#000000;letter-spacing:normal;word-spacing:normal;text-transform:none;writing-mode:lr-tb;direction:ltr;text-orientation:mixed;dominant-baseline:auto;baseline-shift:baseline;text-anchor:start;white-space:normal;shape-padding:0;clip-rule:nonzero;display:inline;overflow:visible;visibility:visible;opacity:1;isolation:auto;mix-blend-mode:normal;color-interpolation:sRGB;color-interpolation-filters:linearRGB;solid-color:#000000;solid-opacity:1;vector-effect:none;fill:#ffffff;fill-opacity:1;fill-rule:nonzero;stroke:none;stroke-width:0.264583px;stroke-linecap:butt;stroke-linejoin:miter;stroke-miterlimit:4;stroke-dasharray:none;stroke-dashoffset:0;stroke-opacity:1;color-rendering:auto;image-rendering:auto;shape-rendering:auto;text-rendering:auto;enable-background:accumulate"/>
  <path style="color:#000000;font-style:normal;font-variant:normal;font-weight:normal;font-stretch:normal;font-size:medium;line-height:normal;font-family:sans-serif;font-variant-ligatures:normal;font-variant-position:normal;font-variant-caps:normal;font-variant-numeric:normal;font-variant-alternates:normal;font-feature-settings:normal;text-indent:0;text-align:start;text-decoration:none;text-decoration-line:none;text-decoration-style:solid;text-decoration-color:#000000;letter-spacing:normal;word-spacing:normal;text-transform:none;writing-mode:lr-tb;direction:ltr;text-orientation:mixed;dominant-baseline:auto;baseline-shift:baseline;text-anchor:start;white-space:normal;shape-padding:0;clip-rule:nonzero;display:inline;overflow:visible;visibility:visible;opacity:1;isolation:auto;mix-blend-mode:normal;color-interpolation:sRGB;color-interpolation-filters:linearRGB;solid-color:#000000;solid-opacity:1;vector-effect:none;fill:#ffffff;fill-opacity:1;fill-rule:nonzero;stroke:none;stroke-width:0.264583px;stroke-linecap:butt;stroke-linejoin:miter;stroke-miterlimit:4;stroke-dasharray:none;stroke-dashoffset:0;stroke-opacity:1;color-rendering:auto;image-rendering:auto;shape-rendering:auto;text-rendering:auto;enable-background:accumulate" d="M 818.234 293.732 C 817.989 293.732 817.745 293.732 817.5 293.742 C 810.977 293.871 804.448 296.248 799.544 299.984 C 793.067 304.917 788.361 311.678 788.04 323.762 L 788.039 323.795 L 806.853 320.65 L 806.843 320.621 C 805.346 315.04 808.205 310.466 812.214 309.215 C 814.436 308.522 816.106 308.742 817.392 309.457 C 818.679 310.171 819.583 311.382 820.265 312.677 C 821.606 315.222 821.629 318.303 820.886 321.328 C 820.144 324.352 818.635 327.319 816.914 329.63 C 807.555 342.201 787.603 367.575 787.603 367.575 L 787.56 367.629 L 841.49 359.256 L 840.938 344.352 L 818.987 347.865 C 819.055 347.789 826.367 339.582 830.044 335.549 C 834.753 330.383 838.453 323.626 839.18 316.671 C 840.117 307.692 835.768 299.488 828.881 296.131 C 825.546 294.505 821.899 293.76 818.231 293.737 L 818.234 293.732 Z M 779.569 302.553 L 753.365 306.91 L 753.366 306.933 L 753.559 321.314 L 762.889 319.788 L 763.678 371.261 L 780.67 368.613 L 779.569 302.553 Z" id="path931-1"/>
  <path style="color:#000000;font-style:normal;font-variant:normal;font-weight:normal;font-stretch:normal;font-size:medium;line-height:normal;font-family:sans-serif;font-variant-ligatures:normal;font-variant-position:normal;font-variant-caps:normal;font-variant-numeric:normal;font-variant-alternates:normal;font-feature-settings:normal;text-indent:0;text-align:start;text-decoration:none;text-decoration-line:none;text-decoration-style:solid;text-decoration-color:#000000;letter-spacing:normal;word-spacing:normal;text-transform:none;writing-mode:lr-tb;direction:ltr;text-orientation:mixed;dominant-baseline:auto;baseline-shift:baseline;text-anchor:start;white-space:normal;shape-padding:0;clip-rule:nonzero;display:inline;overflow:visible;visibility:visible;opacity:1;isolation:auto;mix-blend-mode:normal;color-interpolation:sRGB;color-interpolation-filters:linearRGB;solid-color:#000000;solid-opacity:1;vector-effect:none;fill:#ffffff;fill-opacity:1;fill-rule:nonzero;stroke:none;stroke-width:0.264583px;stroke-linecap:butt;stroke-linejoin:miter;stroke-miterlimit:4;stroke-dasharray:none;stroke-dashoffset:0;stroke-opacity:1;color-rendering:auto;image-rendering:auto;shape-rendering:auto;text-rendering:auto;enable-background:accumulate" d="M 752.805 1094.18 C 753.212 1094.18 753.619 1094.18 754.027 1094.16 C 764.895 1093.95 775.772 1089.99 783.942 1083.77 C 794.732 1075.55 802.572 1064.28 803.108 1044.15 L 803.108 1044.1 L 771.763 1049.34 L 771.776 1049.38 C 774.27 1058.68 769.507 1066.3 762.828 1068.39 C 759.127 1069.54 756.345 1069.17 754.202 1067.98 C 752.059 1066.79 750.552 1064.78 749.415 1062.62 C 747.182 1058.38 747.143 1053.24 748.38 1048.21 C 749.618 1043.17 752.132 1038.23 754.998 1034.38 C 770.59 1013.43 803.83 971.159 803.83 971.159 L 803.901 971.069 L 714.054 985.019 L 714.974 1009.85 L 751.545 1004 C 751.431 1004.12 739.249 1017.79 733.123 1024.52 C 725.278 1033.12 719.113 1044.38 717.903 1055.96 C 716.342 1070.92 723.587 1084.59 735.061 1090.18 C 740.617 1092.89 746.693 1094.13 752.803 1094.17 L 752.805 1094.18 Z M 817.219 1079.48 L 860.875 1072.22 L 860.874 1072.18 L 860.552 1048.22 L 845.008 1050.77 L 843.694 965.013 L 815.385 969.425 L 817.219 1079.48 Z" id="path933-6"/>
  <path id="path935-1" d="M 402.012 1087.58 C 402.257 1087.58 402.501 1087.58 402.746 1087.57 C 409.269 1087.44 415.798 1085.07 420.702 1081.33 C 427.179 1076.4 431.885 1069.63 432.206 1057.55 L 432.207 1057.52 L 413.393 1060.66 L 413.403 1060.69 C 414.9 1066.27 412.041 1070.85 408.031 1072.1 C 405.81 1072.79 404.14 1072.57 402.854 1071.86 C 401.567 1071.14 400.663 1069.93 399.981 1068.63 C 398.64 1066.09 398.617 1063.01 399.36 1059.98 C 400.102 1056.96 401.611 1053.99 403.332 1051.68 C 412.691 1039.11 432.643 1013.74 432.643 1013.74 L 432.686 1013.68 L 378.755 1022.06 L 379.308 1036.96 L 401.259 1033.45 C 401.191 1033.52 393.879 1041.73 390.202 1045.76 C 385.493 1050.93 381.792 1057.69 381.066 1064.64 C 380.129 1073.62 384.478 1081.83 391.365 1085.18 C 394.7 1086.81 398.347 1087.55 402.015 1087.58 L 402.012 1087.58 Z M 440.677 1078.76 L 466.881 1074.4 L 466.88 1074.38 L 466.686 1060 L 457.357 1061.53 L 456.568 1010.05 L 439.576 1012.7 L 440.677 1078.76 Z" style="color:#000000;font-style:normal;font-variant:normal;font-weight:normal;font-stretch:normal;font-size:medium;line-height:normal;font-family:sans-serif;font-variant-ligatures:normal;font-variant-position:normal;font-variant-caps:normal;font-variant-numeric:normal;font-variant-alternates:normal;font-feature-settings:normal;text-indent:0;text-align:start;text-decoration:none;text-decoration-line:none;text-decoration-style:solid;text-decoration-color:#000000;letter-spacing:normal;word-spacing:normal;text-transform:none;writing-mode:lr-tb;direction:ltr;text-orientation:mixed;dominant-baseline:auto;baseline-shift:baseline;text-anchor:start;white-space:normal;shape-padding:0;clip-rule:nonzero;display:inline;overflow:visible;visibility:visible;opacity:1;isolation:auto;mix-blend-mode:normal;color-interpolation:sRGB;color-interpolation-filters:linearRGB;solid-color:#000000;solid-opacity:1;vector-effect:none;fill:#ffffff;fill-opacity:1;fill-rule:nonzero;stroke:none;stroke-width:0.264583px;stroke-linecap:butt;stroke-linejoin:miter;stroke-miterlimit:4;stroke-dasharray:none;stroke-dashoffset:0;stroke-opacity:1;color-rendering:auto;image-rendering:auto;shape-rendering:auto;text-rendering:auto;enable-background:accumulate"/>
</svg>