<?xml version="1.0" standalone="no"?>
<!DOCTYPE svg PUBLIC "-//W3C//DTD SVG 1.1//EN"
"http://www.w3.org/Graphics/SVG/1.1/DTD/svg11.dtd">

<svg height="898" transform="translate(0.5,0.5)" version="1.1" width="571" xmlns="http://www.w3.org/2000/svg" xmlns:nch="http://www.nchsoftware.com/drawpad/" xmlns:xlink="http://www.w3.org/1999/xlink"><rect fill="rgb(255,255,255)" fill-opacity="1.000" height="898" id="background" width="571" x="0" y="0"/><g class="Layer"><path d="M57,1 C25,1 0,27 0,59 C0,59 0,837 0,837 C0,868 25,894 57,894 C57,894 513,894 513,894 C545,894 571,868 571,837 C571,837 571,59 571,59 C571,27 545,1 513,1 C513,1 57,1 57,1" fill="rgb(0,0,255)" fill-opacity="1.000" fill-rule="evenodd" nch:path="57.1,1.1,25.5,1.1,-0.4,26.9 -0.4,58.5,-0.4,58.5,-0.4,836.5 -0.4,836.5,-0.4,868.1,25.5,894.0 57.1,894.0,57.1,894.0,513.3,894.0 513.3,894.0,544.9,894.0,570.7,868.1 570.7,836.5,570.7,836.5,570.7,58.5 570.7,58.5,570.7,26.9,544.9,1.1 513.3,1.1,513.3,1.1,57.1,1.1 57.1,1.1," nch:penfill="rgba(0,0,255,255)"/><path d="M57,28 C57,28 513,28 513,28 C530,28 544,41 544,59 C544,59 544,156 544,156 C544,156 26,241 26,241 C26,241 26,59 26,59 C26,41 39,28 57,28 C57,28 57,28 57,28" fill="rgb(255,255,255)" fill-opacity="1.000" fill-rule="evenodd" nch:path="56.7,27.8,56.7,27.8,512.9,27.8 512.9,27.8,530.3,27.8,543.9,41.4 543.9,58.8,543.9,58.8,543.9,156.5 543.9,156.5,543.9,156.5,25.7,241.0 25.7,241.0,25.7,241.0,25.7,58.8 25.7,58.8,25.7,41.4,39.3,27.8 56.7,27.8,56.7,27.8,56.7,27.8 56.7,27.8," nch:penfill="rgba(255,255,255,255)"/><path d="M544,662 C544,662 544,837 544,837 C544,854 530,868 513,868 C513,868 57,868 57,868 C39,868 26,854 26,837 C26,837 26,747 26,747 C26,747 544,662 544,662" fill="rgb(255,255,255)" fill-opacity="1.000" fill-rule="evenodd" nch:path="543.9,662.1,543.9,662.1,543.9,836.8 543.9,836.8,543.9,854.2,530.3,867.8 512.9,867.8,512.9,867.8,56.7,867.8 56.7,867.8,39.3,867.8,25.7,854.2 25.7,836.8,25.7,836.8,25.7,746.6 25.7,746.6,25.7,746.6,543.9,662.1 543.9,662.1," nch:penfill="rgba(255,255,255,255)"/><path d="M116,333 C117,333 119,333 120,333 C124,333 129,335 132,338 C135,341 137,345 137,352 C137,360 135,366 132,370 C129,374 124,377 120,378 C112,381 103,380 103,380 C103,380 103,380 103,380 C103,380 102,335 102,335 C102,335 102,335 102,335 C102,335 103,334 103,334 C103,334 108,333 114,333 C114,333 115,333 116,333 C116,333 116,333 116,333M122,310 C109,310 93,313 77,316 C77,316 77,317 77,317 C77,317 77,317 77,317 C77,317 78,460 78,460 C78,460 105,458 105,458 C105,458 104,403 104,403 C118,403 134,399 145,390 C157,380 165,367 164,348 C163,336 160,328 155,322 C150,316 143,312 135,311 C131,310 127,310 122,310 C122,310 122,310 122,310" fill="rgb(255,255,255)" fill-opacity="1.000" fill-rule="evenodd" nch:path="116.0,332.8,117.4,332.8,118.7,332.8 120.1,333.0,124.4,333.5,128.8,334.8 132.0,337.8,135.3,340.8,137.5,345.5 137.4,352.3,137.4,360.2,135.2,365.9 132.0,370.0,128.7,374.1,124.4,376.6 120.2,378.0,111.7,380.9,103.3,379.8 103.3,379.8,103.3,379.8,102.8,379.8 102.8,379.8,102.8,379.8,102.4,335.0 102.4,335.0,102.4,335.0,102.4,334.6 102.4,334.6,102.4,334.6,102.8,334.5 102.8,334.5,102.8,334.5,107.7,333.1 113.7,332.8,114.5,332.8,115.3,332.8 116.0,332.8,116.0,332.8,116.0,332.8 116.0,332.8,117.4,332.8,122.4,309.6 M122.4,309.6,108.8,309.5,93.2,312.6 77.3,316.4,77.3,316.4,76.9,316.5 76.9,316.5,76.9,316.5,76.9,317.0 76.9,317.0,76.9,317.0,78.2,460.2 78.2,460.2,78.2,460.2,105.3,457.5 105.3,457.5,105.3,457.5,104.3,403.3 104.3,403.3,118.2,403.0,133.5,398.6 145.2,389.6,157.0,380.4,165.0,366.6 163.7,347.7,163.0,336.1,159.8,327.7 154.9,321.8,149.9,315.9,143.1,312.4 135.2,310.8,131.2,310.0,126.9,309.6 122.4,309.6,122.4,309.6,122.4,309.6 122.4,309.6," nch:penfill="rgba(255,255,255,255)"/><path d="M195,298 C195,298 194,298 194,298 C194,298 168,301 168,301 C168,301 171,447 171,447 C171,447 196,444 196,444 C196,444 196,400 196,400 C196,398 197,395 199,392 C201,390 204,388 207,387 C210,386 213,386 215,388 C217,389 218,391 218,395 C218,395 220,438 220,438 C220,438 246,435 246,435 C246,435 245,383 245,383 C245,371 236,363 225,362 C215,360 203,364 196,374 C196,374 195,298 195,298" fill="rgb(255,255,255)" fill-opacity="1.000" fill-rule="evenodd" nch:path="194.7,297.5,194.7,297.5,194.1,297.6 194.1,297.6,194.1,297.6,167.6,300.6 167.6,300.6,167.6,300.6,170.9,446.6 170.9,446.6,170.9,446.6,195.7,443.9 195.7,443.9,195.7,443.9,195.7,400.3 195.7,400.3,195.7,397.5,197.1,394.7 199.2,392.4,201.4,390.1,204.2,388.3 207.1,387.4,209.9,386.5,212.7,386.4 214.8,387.6,216.9,388.7,218.3,391.1 218.4,395.2,218.4,395.2,219.6,438.1 219.6,438.1,219.6,438.1,246.2,434.9 246.2,434.9,246.2,434.9,245.1,382.5 245.1,382.5,244.8,370.7,235.8,363.3 225.1,361.7,214.8,360.2,203.0,364.1 195.7,374.3,195.7,374.3,194.7,297.5 194.7,297.5," nch:penfill="rgba(255,255,255,255)"/><path d="M293,372 C294,372 296,372 297,373 C305,375 309,385 305,394 C302,403 293,409 285,406 C277,403 274,393 277,384 C280,377 286,372 293,372 C293,372 293,372 293,372M332,344 C332,344 308,348 308,348 C308,348 308,351 308,351 C308,351 306,350 302,350 C298,349 293,348 289,349 C278,351 269,357 263,363 C257,370 252,376 251,385 C249,394 250,407 254,415 C258,421 263,425 270,427 C277,430 289,429 296,427 C299,427 302,425 305,423 C307,422 309,421 309,420 C309,420 309,424 309,424 C309,424 310,424 310,424 C310,424 332,421 332,421 C332,421 332,344 332,344" fill="rgb(255,255,255)" fill-opacity="1.000" fill-rule="evenodd" nch:path="292.6,371.9,294.1,371.9,295.6,372.1 297.1,372.7,305.0,375.5,308.6,385.2 305.3,394.3,302.1,403.5,293.1,408.7 285.2,405.9,277.4,403.1,273.8,393.4 277.0,384.2,279.7,376.8,286.1,372.0 292.6,371.9,292.6,371.9,292.6,371.9 292.6,371.9,294.1,371.9,332.0,344.3 M332.0,344.3,332.0,344.3,308.3,348.1 308.3,348.1,308.3,348.1,308.3,351.2 308.3,351.2,307.7,351.0,305.6,350.3 302.0,349.6,298.1,348.9,293.3,348.2 289.5,348.9,278.4,350.7,269.1,356.8 263.0,363.3,256.5,370.2,252.2,375.9 250.7,385.4,249.3,393.9,249.5,407.1 254.1,414.6,258.2,421.4,262.8,424.9 270.3,427.4,277.3,429.8,289.0,429.4 296.1,427.4,298.9,426.6,302.3,424.7 305.1,423.0,307.4,421.6,308.6,420.8 309.1,420.4,309.1,420.4,309.1,424.2 309.1,424.2,309.1,424.2,309.7,424.1 309.7,424.1,309.7,424.1,332.4,420.9 332.4,420.9,332.4,420.9,332.0,344.3 332.0,344.3," nch:penfill="rgba(255,255,255,255)"/><path d="M380,335 C376,335 371,335 366,337 C355,339 347,349 345,358 C344,363 344,369 345,373 C347,378 350,381 355,384 C359,385 365,387 370,387 C374,387 377,387 379,387 C380,387 381,387 381,388 C382,388 382,389 382,389 C382,390 381,391 380,392 C380,392 379,393 377,393 C375,394 371,394 368,394 C361,393 355,390 355,390 C355,390 355,390 355,390 C355,390 340,405 340,405 C340,405 340,405 340,405 C341,407 344,409 348,410 C351,412 356,414 362,415 C372,417 386,416 397,407 C403,402 407,393 407,385 C407,377 403,369 394,366 C390,364 383,363 378,363 C375,363 372,363 370,363 C369,363 368,362 367,362 C367,361 367,361 367,360 C367,359 368,358 370,357 C372,356 374,356 377,356 C382,357 388,359 388,359 C388,359 389,359 389,359 C389,359 402,342 402,342 C402,342 402,342 402,342 C402,342 393,336 380,335 C380,335 380,335 380,335" fill="rgb(255,255,255)" fill-opacity="1.000" fill-rule="evenodd" nch:path="380.2,335.4,375.9,335.1,371.2,335.4 366.1,336.5,355.1,339.1,347.3,348.5 344.8,358.5,343.5,363.5,343.6,368.6 345.2,373.1,346.8,377.5,350.1,381.3 355.1,383.6,359.1,385.4,364.8,386.8 370.4,386.8,373.6,386.8,376.6,386.6 378.7,386.9,379.8,387.1,380.6,387.4 381.1,387.8,381.5,388.1,381.8,388.6 381.7,389.5,381.7,390.3,381.2,391.1 380.5,391.8,379.7,392.4,378.6,393.0 377.2,393.4,374.6,394.2,371.0,394.5 367.6,394.0,361.2,393.2,355.2,389.7 355.2,389.7,355.2,389.7,354.9,389.5 354.9,389.5,354.9,389.5,340.0,405.0 340.0,405.0,340.0,405.0,340.3,405.4 340.3,405.4,341.3,406.8,343.9,408.6 347.6,410.5,351.4,412.3,356.2,414.1 361.6,415.2,372.4,417.3,385.6,416.4 396.7,407.0,402.9,401.8,406.7,393.5 406.7,385.4,406.8,377.3,402.9,369.5 393.6,365.6,389.7,364.0,383.4,363.5 378.1,363.4,374.7,363.3,371.6,363.3 369.6,362.9,368.6,362.6,367.8,362.3 367.4,361.8,366.9,361.4,366.7,360.8 366.8,359.8,366.9,358.6,368.0,357.5 369.8,356.9,371.6,356.2,374.0,355.8 376.6,356.1,382.2,356.5,388.4,359.2 388.4,359.2,388.4,359.2,388.8,359.3 388.8,359.3,388.8,359.3,402.1,342.2 402.1,342.2,402.1,342.2,401.7,341.9 401.7,341.9,401.7,341.9,393.1,336.2 380.2,335.4,380.2,335.4,380.2,335.4 380.2,335.4," nch:penfill="rgba(255,255,255,255)"/><path d="M455,343 C459,343 463,345 465,347 C467,350 468,353 468,353 C468,353 468,353 468,353 C468,353 438,357 438,357 C438,357 438,357 438,357 C438,357 438,357 438,357 C438,357 438,354 440,350 C442,347 446,344 453,343 C453,343 454,343 455,343 C455,343 455,343 455,343M456,323 C455,323 453,323 452,323 C431,324 410,343 411,369 C411,382 416,390 423,396 C429,401 439,403 449,403 C459,403 469,399 477,394 C480,392 483,390 485,388 C486,387 487,387 488,386 C488,386 488,385 488,385 C488,385 489,384 488,384 C488,384 488,384 488,384 C488,384 473,370 473,370 C473,370 472,371 472,371 C465,377 458,380 452,381 C446,381 441,379 437,373 C437,373 493,365 493,365 C493,365 493,365 493,365 C493,365 495,353 491,342 C489,337 485,332 479,328 C474,325 468,323 460,323 C459,323 458,323 456,323 C456,323 456,323 456,323" fill="rgb(255,255,255)" fill-opacity="1.000" fill-rule="evenodd" nch:path="454.7,343.0,459.5,343.0,462.7,345.1 464.7,347.4,467.1,349.9,467.9,352.7 467.9,352.7,467.9,352.7,468.1,353.3 468.1,353.3,468.1,353.3,438.4,357.4 438.4,357.4,438.4,357.4,437.8,357.5 437.8,357.5,437.8,357.5,437.8,356.8 437.8,356.8,437.8,356.8,438.1,353.7 440.1,350.5,442.1,347.3,445.9,343.8 452.6,343.1,453.3,343.0,454.0,343.0 454.7,343.0,454.7,343.0,454.7,343.0 454.7,343.0,459.5,343.0,456.1,322.5 M456.1,322.5,454.7,322.5,453.3,322.6 451.7,322.7,431.4,324.1,410.5,343.5 411.0,368.8,411.3,381.5,415.7,390.4 422.5,395.8,429.4,401.3,438.7,403.5 448.9,403.1,459.2,402.8,469.3,398.6 476.7,394.4,480.3,392.2,483.3,390.1 485.4,388.3,486.4,387.4,487.2,386.6 487.7,386.0,488.0,385.6,488.2,385.3 488.3,385.1,488.4,384.8,488.5,384.4 488.3,384.1,488.3,384.1,488.3,384.0 488.3,384.0,488.3,384.0,472.8,370.2 472.8,370.2,472.8,370.2,472.4,370.5 472.4,370.5,465.0,376.7,457.8,380.4 451.7,381.0,445.8,381.5,440.8,379.1 437.3,373.1,437.3,373.1,493.0,364.9 493.0,364.9,493.0,364.9,493.1,364.6 493.1,364.6,493.1,364.6,495.0,353.3 490.7,342.4,488.6,337.0,484.9,331.6 478.7,327.9,474.1,325.0,468.0,323.1 460.2,322.6,458.9,322.5,457.5,322.5 456.1,322.5,456.1,322.5,456.1,322.5 456.1,322.5," nch:penfill="rgba(255,255,255,255)"/><path d="M493,407 C493,407 381,426 381,426 C381,426 383,427 383,427 C392,430 405,438 408,450 C408,450 408,450 408,450 C408,450 493,435 493,435 C493,435 493,407 493,407" fill="rgb(255,255,255)" fill-opacity="1.000" fill-rule="evenodd" nch:path="493.2,407.3,493.2,407.3,380.9,425.9 380.9,425.9,380.9,425.9,382.8,426.6 382.8,426.6,392.3,430.1,404.8,438.1 407.7,449.5,407.7,449.5,407.8,450.0 407.8,450.0,407.8,450.0,493.0,434.8 493.0,434.8,493.0,434.8,493.2,407.3 493.2,407.3," nch:penfill="rgba(255,255,255,255)"/><path d="M194,456 C194,456 78,474 78,474 C78,474 78,474 78,474 C78,474 77,502 77,502 C77,502 194,483 194,483 C194,483 194,456 194,456" fill="rgb(255,255,255)" fill-opacity="1.000" fill-rule="evenodd" nch:path="193.8,456.0,193.8,456.0,77.9,473.7 77.9,473.7,77.9,473.7,77.9,474.1 77.9,474.1,77.9,474.1,77.3,501.9 77.3,501.9,77.3,501.9,194.1,482.7 194.1,482.7,194.1,482.7,193.8,456.0 193.8,456.0," nch:penfill="rgba(255,255,255,255)"/><path d="M250,445 C250,445 250,445 250,445 C250,445 200,454 200,454 C200,454 201,482 201,482 C201,482 219,479 219,479 C219,479 219,598 219,598 C219,598 251,593 251,593 C251,593 250,445 250,445" fill="rgb(255,255,255)" fill-opacity="1.000" fill-rule="evenodd" nch:path="250.4,445.0,250.4,445.0,249.8,445.1 249.8,445.1,249.8,445.1,199.7,453.9 199.7,453.9,199.7,453.9,200.6,482.1 200.6,482.1,200.6,482.1,218.6,478.7 218.6,478.7,218.6,478.7,219.3,597.6 219.3,597.6,219.3,597.6,251.3,593.0 251.3,593.0,251.3,593.0,250.4,445.0 250.4,445.0," nch:penfill="rgba(255,255,255,255)"/><path d="M339,456 C351,454 362,458 370,465 C379,473 384,486 384,500 C383,512 379,523 372,533 C372,533 372,533 372,533 C364,543 354,550 343,553 C329,556 315,553 305,545 C305,545 305,545 305,545 C296,536 291,524 292,510 C292,498 296,487 303,477 C303,477 303,477 303,477 C311,467 321,460 333,457 C335,456 337,456 339,456 C339,456 339,456 339,456M345,427 C326,428 307,436 292,450 C288,453 285,456 283,460 C270,475 263,494 262,513 C261,536 270,556 286,569 C302,582 324,587 346,581 C365,577 382,566 394,550 C394,550 394,550 394,550 C407,535 414,516 415,497 C415,475 407,454 390,441 C390,441 390,441 390,441 C378,431 362,426 345,427 C345,427 345,427 345,427" fill="rgb(255,255,255)" fill-opacity="1.000" fill-rule="evenodd" nch:path="339.5,455.6,350.9,454.5,361.7,457.9 369.8,465.1,379.1,473.4,384.2,486.1 383.7,500.0,383.3,511.5,379.2,523.1 372.0,532.7,372.0,532.7,372.0,532.7 372.0,532.7,364.4,542.7,353.9,549.9 342.7,552.9,329.0,556.4,315.3,553.4 305.5,544.6,305.5,544.6,305.5,544.6 305.5,544.6,296.1,536.3,291.1,523.6 291.5,509.7,291.9,498.2,296.1,486.7 303.3,477.1,303.3,477.1,303.3,477.1 303.3,477.1,310.9,467.0,321.3,459.8 332.6,456.9,334.9,456.3,337.2,455.9 339.5,455.6,339.5,455.6,339.5,455.6 339.5,455.6,350.9,454.5,344.9,426.7 M344.9,426.7,325.8,427.6,306.9,436.0 291.7,450.0,288.4,453.0,285.3,456.3 282.5,459.8,269.9,475.2,262.7,494.2 262.1,513.0,261.3,535.6,270.2,556.1 286.3,569.2,302.4,582.3,324.3,586.7 346.3,581.4,364.6,576.9,381.6,565.9 394.2,550.4,394.2,550.4,394.2,550.4 394.2,550.4,406.7,535.0,414.0,516.0 414.6,497.2,415.4,474.6,406.5,454.1 390.4,441.0,390.4,441.0,390.4,441.0 390.4,441.0,377.9,430.9,361.9,425.8 344.9,426.7,344.9,426.7,344.9,426.7 344.9,426.7," nch:penfill="rgba(255,255,255,255)"/></g></svg>