<?xml version="1.0" encoding="utf-8"?>
<svg xmlns="http://www.w3.org/2000/svg" viewBox="328.891 248.082 571.131 892.8979" width="571.131mm" height="892.898mm">
  <path id="path898-57" d="M 386.354 248.082 C 354.749 248.082 328.891 273.94 328.891 305.546 L 328.891 1083.52 C 328.891 1115.12 354.749 1140.98 386.354 1140.98 L 842.559 1140.98 C 874.165 1140.98 900.022 1115.12 900.022 1083.52 L 900.022 305.546 C 900.022 273.94 874.165 248.082 842.559 248.082 L 386.354 248.082 Z" style="color:#000000;font-style:normal;font-variant:normal;font-weight:normal;font-stretch:normal;font-size:medium;line-height:normal;font-family:sans-serif;font-variant-ligatures:normal;font-variant-position:normal;font-variant-caps:normal;font-variant-numeric:normal;font-variant-alternates:normal;font-feature-settings:normal;text-indent:0;text-align:start;text-decoration:none;text-decoration-line:none;text-decoration-style:solid;text-decoration-color:#000000;letter-spacing:normal;word-spacing:normal;text-transform:none;writing-mode:lr-tb;direction:ltr;text-orientation:mixed;dominant-baseline:auto;baseline-shift:baseline;text-anchor:start;white-space:normal;shape-padding:0;clip-rule:nonzero;display:inline;overflow:visible;visibility:visible;opacity:1;isolation:auto;mix-blend-mode:normal;color-interpolation:sRGB;color-interpolation-filters:linearRGB;solid-color:#000000;solid-opacity:1;vector-effect:none;fill:#ffffff;fill-opacity:1;fill-rule:nonzero;stroke:none;stroke-width:26.4583;stroke-linecap:round;stroke-linejoin:round;stroke-miterlimit:4;stroke-dasharray:none;stroke-dashoffset:0;stroke-opacity:1;paint-order:fill markers stroke;color-rendering:auto;image-rendering:auto;shape-rendering:auto;text-rendering:auto;enable-background:accumulate" transform="matrix(0.9999999999999999, 0, 0, 0.9999999999999999, -5.684341886080802e-14, 0)"/>
  <path style="color: rgb(0, 0, 0); font-style: normal; font-variant: normal; font-weight: normal; font-stretch: normal; font-size: medium; line-height: normal; font-family: sans-serif; font-feature-settings: normal; text-indent: 0px; text-align: start; text-decoration: none solid rgb(0, 0, 0); letter-spacing: normal; word-spacing: normal; text-transform: none; writing-mode: lr-tb; direction: ltr; text-orientation: mixed; dominant-baseline: auto; baseline-shift: baseline; text-anchor: start; white-space: normal; clip-rule: nonzero; display: inline; overflow: visible; visibility: visible; opacity: 1; isolation: auto; mix-blend-mode: normal; color-interpolation: srgb; color-interpolation-filters: linearrgb; vector-effect: none; fill-opacity: 1; fill-rule: nonzero; stroke: none; stroke-width: 26.4583; stroke-linecap: round; stroke-linejoin: round; stroke-miterlimit: 4; stroke-dasharray: none; stroke-dashoffset: 0; stroke-opacity: 1; paint-order: fill markers; color-rendering: auto; image-rendering: auto; shape-rendering: auto; text-rendering: auto; fill: rgb(0, 128, 0);" d="M 385.971 274.835 L 842.175 274.835 C 859.581 274.835 873.18 288.434 873.18 305.839 L 873.18 403.488 L 354.965 488.02 L 354.965 305.839 C 354.965 288.434 368.565 274.835 385.971 274.835 Z" id="path889-02" transform="matrix(0.9999999999999999, 0, 0, 0.9999999999999999, -5.684341886080802e-14, 0)"/>
  <path style="color: rgb(0, 0, 0); font-style: normal; font-variant: normal; font-weight: normal; font-stretch: normal; font-size: medium; line-height: normal; font-family: sans-serif; font-feature-settings: normal; text-indent: 0px; text-align: start; text-decoration: none solid rgb(0, 0, 0); letter-spacing: normal; word-spacing: normal; text-transform: none; writing-mode: lr-tb; direction: ltr; text-orientation: mixed; dominant-baseline: auto; baseline-shift: baseline; text-anchor: start; white-space: normal; clip-rule: nonzero; display: inline; overflow: visible; visibility: visible; opacity: 1; isolation: auto; mix-blend-mode: normal; color-interpolation: srgb; color-interpolation-filters: linearrgb; vector-effect: none; fill-opacity: 1; fill-rule: nonzero; stroke: none; stroke-width: 26.4583; stroke-linecap: round; stroke-linejoin: round; stroke-miterlimit: 4; stroke-dasharray: none; stroke-dashoffset: 0; stroke-opacity: 1; paint-order: fill markers; color-rendering: auto; image-rendering: auto; shape-rendering: auto; text-rendering: auto; fill: rgb(0, 128, 0);" d="M 873.18 909.064 L 873.18 1083.81 C 873.18 1101.21 859.581 1114.81 842.175 1114.81 L 385.971 1114.81 C 368.565 1114.81 354.965 1101.21 354.965 1083.81 L 354.965 993.595 L 873.18 909.064 Z" id="rect4529-9" transform="matrix(0.9999999999999999, 0, 0, 0.9999999999999999, -5.684341886080802e-14, 0)"/>
  <path style="color: rgb(0, 0, 0); font-style: normal; font-variant: normal; font-weight: normal; font-stretch: normal; font-size: medium; line-height: normal; font-family: sans-serif; font-feature-settings: normal; text-indent: 0px; text-align: start; text-decoration: none solid rgb(0, 0, 0); letter-spacing: normal; word-spacing: normal; text-transform: none; writing-mode: lr-tb; direction: ltr; text-orientation: mixed; dominant-baseline: auto; baseline-shift: baseline; text-anchor: start; white-space: normal; clip-rule: nonzero; display: inline; overflow: visible; visibility: visible; opacity: 1; isolation: auto; mix-blend-mode: normal; color-interpolation: srgb; color-interpolation-filters: linearrgb; vector-effect: none; fill-opacity: 1; fill-rule: nonzero; stroke: none; stroke-width: 0.264583px; stroke-linecap: butt; stroke-linejoin: miter; stroke-miterlimit: 4; stroke-dasharray: none; stroke-dashoffset: 0; stroke-opacity: 1; color-rendering: auto; image-rendering: auto; shape-rendering: auto; text-rendering: auto; fill: rgb(0, 128, 0);" d="M 710.283 517.594 L 710.133 517.614 L 542.137 539.7 L 511.068 720.821 L 511.314 720.671 C 511.314 720.671 534.239 706.842 555.658 702.134 C 562.408 700.65 574.743 698.657 587.686 698.589 C 600.628 698.521 614.174 700.383 623.35 706.575 C 635.612 714.85 641.643 725.265 643.51 735.97 C 645.377 746.675 643.077 757.675 638.65 767.098 C 627.575 790.679 602.821 801.389 568.061 800.735 C 552.441 800.442 535.546 793.987 522.561 787.602 C 509.575 781.217 500.502 774.907 500.502 774.907 L 500.33 774.788 L 486.84 856.686 L 486.84 856.676 C 486.826 856.73 486.85 856.772 486.86 856.797 C 486.875 856.822 486.889 856.836 486.905 856.852 C 486.938 856.883 486.976 856.912 487.026 856.944 C 487.126 857.008 487.269 857.088 487.458 857.183 C 487.835 857.373 488.397 857.627 489.129 857.937 C 490.595 858.555 492.748 859.392 495.485 860.36 C 500.959 862.298 508.767 864.762 518.065 867.048 C 536.661 871.62 561.214 875.482 584.96 872.995 C 623.92 868.915 665.593 856.347 693.016 828.692 C 717.664 803.837 733.658 771.646 732.038 731.179 C 730.451 691.543 713.247 661.785 683.655 645.218 C 643.999 623.016 592.419 642.172 591.827 642.394 L 596.252 604.837 L 709.272 589.62 L 710.283 517.594 Z" id="path999" transform="matrix(0.9999999999999999, 0, 0, 0.9999999999999999, -5.684341886080802e-14, 0)"/>
  <path id="path1001" d="M 455.905 294.652 L 455.854 294.662 L 398.779 302.165 L 388.224 363.698 L 388.308 363.647 C 388.308 363.647 396.096 358.949 403.373 357.35 C 405.667 356.846 409.857 356.169 414.254 356.145 C 418.651 356.122 423.253 356.755 426.371 358.859 C 430.537 361.67 432.585 365.208 433.22 368.845 C 433.854 372.482 433.073 376.219 431.569 379.421 C 427.806 387.432 419.396 391.07 407.587 390.848 C 402.28 390.748 396.54 388.556 392.129 386.387 C 387.717 384.217 384.635 382.073 384.635 382.073 L 384.577 382.032 L 379.994 409.856 C 379.994 409.874 379.994 409.889 380.004 409.897 C 380.004 409.907 380.014 409.91 380.019 409.916 C 380.03 409.927 380.043 409.936 380.06 409.947 C 380.094 409.969 380.142 409.996 380.206 410.028 C 380.335 410.093 380.525 410.179 380.774 410.285 C 381.272 410.495 382.004 410.779 382.933 411.108 C 384.793 411.766 387.446 412.603 390.605 413.38 C 396.922 414.933 405.264 416.245 413.331 415.4 C 426.568 414.014 440.725 409.744 450.042 400.349 C 458.416 391.905 463.85 380.968 463.299 367.22 C 462.76 353.755 456.915 343.645 446.862 338.016 C 433.389 330.473 415.866 336.982 415.664 337.057 L 417.168 324.297 L 455.565 319.128 L 455.905 294.652 Z" style="color:#000000;font-style:normal;font-variant:normal;font-weight:normal;font-stretch:normal;font-size:medium;line-height:normal;font-family:sans-serif;font-variant-ligatures:normal;font-variant-position:normal;font-variant-caps:normal;font-variant-numeric:normal;font-variant-alternates:normal;font-feature-settings:normal;text-indent:0;text-align:start;text-decoration:none;text-decoration-line:none;text-decoration-style:solid;text-decoration-color:#000000;letter-spacing:normal;word-spacing:normal;text-transform:none;writing-mode:lr-tb;direction:ltr;text-orientation:mixed;dominant-baseline:auto;baseline-shift:baseline;text-anchor:start;white-space:normal;shape-padding:0;clip-rule:nonzero;display:inline;overflow:visible;visibility:visible;opacity:1;isolation:auto;mix-blend-mode:normal;color-interpolation:sRGB;color-interpolation-filters:linearRGB;solid-color:#000000;solid-opacity:1;vector-effect:none;fill:#ffffff;fill-opacity:1;fill-rule:nonzero;stroke:none;stroke-width:0.264583px;stroke-linecap:butt;stroke-linejoin:miter;stroke-miterlimit:4;stroke-dasharray:none;stroke-dashoffset:0;stroke-opacity:1;color-rendering:auto;image-rendering:auto;shape-rendering:auto;text-rendering:auto;enable-background:accumulate" transform="matrix(0.9999999999999999, 0, 0, 0.9999999999999999, -5.684341886080802e-14, 0)"/>
  <path style="color:#000000;font-style:normal;font-variant:normal;font-weight:normal;font-stretch:normal;font-size:medium;line-height:normal;font-family:sans-serif;font-variant-ligatures:normal;font-variant-position:normal;font-variant-caps:normal;font-variant-numeric:normal;font-variant-alternates:normal;font-feature-settings:normal;text-indent:0;text-align:start;text-decoration:none;text-decoration-line:none;text-decoration-style:solid;text-decoration-color:#000000;letter-spacing:normal;word-spacing:normal;text-transform:none;writing-mode:lr-tb;direction:ltr;text-orientation:mixed;dominant-baseline:auto;baseline-shift:baseline;text-anchor:start;white-space:normal;shape-padding:0;clip-rule:nonzero;display:inline;overflow:visible;visibility:visible;opacity:1;isolation:auto;mix-blend-mode:normal;color-interpolation:sRGB;color-interpolation-filters:linearRGB;solid-color:#000000;solid-opacity:1;vector-effect:none;fill:#ffffff;fill-opacity:1;fill-rule:nonzero;stroke:none;stroke-width:0.264583px;stroke-linecap:butt;stroke-linejoin:miter;stroke-miterlimit:4;stroke-dasharray:none;stroke-dashoffset:0;stroke-opacity:1;color-rendering:auto;image-rendering:auto;shape-rendering:auto;text-rendering:auto;enable-background:accumulate" d="M 844.407 303.345 L 844.376 303.345 L 810.08 307.854 L 803.737 344.83 L 803.787 344.799 C 803.787 344.799 808.467 341.976 812.84 341.015 C 814.218 340.712 816.736 340.305 819.378 340.291 C 822.02 340.277 824.786 340.657 826.659 341.921 C 829.162 343.611 830.393 345.737 830.775 347.922 C 831.156 350.108 830.687 352.353 829.783 354.277 C 827.521 359.091 822.468 361.277 815.372 361.144 C 812.183 361.084 808.734 359.766 806.083 358.463 C 803.432 357.159 801.58 355.871 801.58 355.871 L 801.545 355.847 L 798.791 372.567 C 798.791 372.578 798.791 372.587 798.791 372.592 C 798.791 372.602 798.801 372.602 798.801 372.603 C 798.811 372.613 798.815 372.615 798.826 372.622 C 798.846 372.635 798.876 372.651 798.914 372.671 C 798.991 372.71 799.105 372.762 799.255 372.825 C 799.554 372.951 799.994 373.122 800.552 373.319 C 801.67 373.715 803.264 374.218 805.162 374.685 C 808.958 375.618 813.971 376.406 818.819 375.899 C 826.772 375.066 835.28 372.5 840.878 366.854 C 845.91 361.78 849.175 355.208 848.844 346.947 C 848.521 338.855 845.008 332.78 838.967 329.398 C 830.871 324.866 820.342 328.776 820.221 328.822 L 821.124 321.154 L 844.197 318.048 L 844.407 303.345 Z" id="path1005" transform="matrix(0.9999999999999999, 0, 0, 0.9999999999999999, -5.684341886080802e-14, 0)"/>
  <path style="color:#000000;font-style:normal;font-variant:normal;font-weight:normal;font-stretch:normal;font-size:medium;line-height:normal;font-family:sans-serif;font-variant-ligatures:normal;font-variant-position:normal;font-variant-caps:normal;font-variant-numeric:normal;font-variant-alternates:normal;font-feature-settings:normal;text-indent:0;text-align:start;text-decoration:none;text-decoration-line:none;text-decoration-style:solid;text-decoration-color:#000000;letter-spacing:normal;word-spacing:normal;text-transform:none;writing-mode:lr-tb;direction:ltr;text-orientation:mixed;dominant-baseline:auto;baseline-shift:baseline;text-anchor:start;white-space:normal;shape-padding:0;clip-rule:nonzero;display:inline;overflow:visible;visibility:visible;opacity:1;isolation:auto;mix-blend-mode:normal;color-interpolation:sRGB;color-interpolation-filters:linearRGB;solid-color:#000000;solid-opacity:1;vector-effect:none;fill:#ffffff;fill-opacity:1;fill-rule:nonzero;stroke:none;stroke-width:0.264583px;stroke-linecap:butt;stroke-linejoin:miter;stroke-miterlimit:4;stroke-dasharray:none;stroke-dashoffset:0;stroke-opacity:1;color-rendering:auto;image-rendering:auto;shape-rendering:auto;text-rendering:auto;enable-background:accumulate" d="M 769.661 1091.48 L 769.712 1091.47 L 826.787 1083.97 L 837.342 1022.43 L 837.258 1022.49 C 837.258 1022.49 829.47 1027.18 822.193 1028.78 C 819.9 1029.29 815.709 1029.96 811.312 1029.99 C 806.915 1030.01 802.313 1029.38 799.195 1027.27 C 795.029 1024.46 792.981 1020.92 792.346 1017.29 C 791.712 1013.65 792.493 1009.91 793.997 1006.71 C 797.76 998.701 806.17 995.062 817.979 995.284 C 823.286 995.384 829.026 997.576 833.437 999.746 C 837.849 1001.91 840.931 1004.06 840.931 1004.06 L 840.989 1004.1 L 845.572 976.276 C 845.582 976.258 845.572 976.243 845.562 976.235 C 845.562 976.225 845.552 976.222 845.547 976.216 C 845.536 976.206 845.523 976.196 845.506 976.185 C 845.472 976.163 845.424 976.136 845.36 976.104 C 845.231 976.039 845.041 975.953 844.792 975.848 C 844.294 975.638 843.562 975.353 842.633 975.024 C 840.773 974.366 838.12 973.529 834.961 972.752 C 828.644 971.199 820.302 969.887 812.235 970.732 C 798.998 972.118 784.841 976.388 775.524 985.783 C 767.15 994.227 761.716 1005.16 762.267 1018.91 C 762.806 1032.38 768.651 1042.49 778.704 1048.12 C 792.177 1055.66 809.7 1049.15 809.902 1049.08 L 808.398 1061.84 L 770.001 1067.01 L 769.661 1091.48 Z" id="path1007" transform="matrix(0.9999999999999999, 0, 0, 0.9999999999999999, -5.684341886080802e-14, 0)"/>
  <path id="path1009" d="M 377.601 1085.77 L 377.632 1085.77 L 411.928 1081.26 L 418.271 1044.28 L 418.221 1044.31 C 418.221 1044.31 413.541 1047.14 409.168 1048.1 C 407.79 1048.4 405.272 1048.81 402.629 1048.82 C 399.987 1048.84 397.222 1048.46 395.349 1047.19 C 392.845 1045.5 391.614 1043.38 391.233 1041.19 C 390.852 1039.01 391.321 1036.76 392.225 1034.84 C 394.486 1030.02 399.539 1027.84 406.636 1027.97 C 409.825 1028.03 413.274 1029.35 415.925 1030.65 C 418.576 1031.95 420.428 1033.24 420.428 1033.24 L 420.463 1033.27 L 423.217 1016.55 C 423.217 1016.54 423.217 1016.53 423.217 1016.52 C 423.217 1016.51 423.207 1016.51 423.207 1016.51 C 423.197 1016.5 423.193 1016.5 423.182 1016.49 C 423.162 1016.48 423.132 1016.46 423.094 1016.44 C 423.017 1016.4 422.902 1016.35 422.753 1016.29 C 422.453 1016.16 422.014 1015.99 421.455 1015.79 C 420.338 1015.4 418.744 1014.89 416.845 1014.43 C 413.049 1013.5 408.037 1012.71 403.189 1013.22 C 395.235 1014.05 386.728 1016.61 381.129 1022.26 C 376.098 1027.33 372.832 1033.9 373.163 1042.17 C 373.487 1050.26 376.999 1056.33 383.04 1059.71 C 391.136 1064.25 401.666 1060.34 401.787 1060.29 L 400.884 1067.96 L 377.811 1071.07 L 377.601 1085.77 Z" style="color:#000000;font-style:normal;font-variant:normal;font-weight:normal;font-stretch:normal;font-size:medium;line-height:normal;font-family:sans-serif;font-variant-ligatures:normal;font-variant-position:normal;font-variant-caps:normal;font-variant-numeric:normal;font-variant-alternates:normal;font-feature-settings:normal;text-indent:0;text-align:start;text-decoration:none;text-decoration-line:none;text-decoration-style:solid;text-decoration-color:#000000;letter-spacing:normal;word-spacing:normal;text-transform:none;writing-mode:lr-tb;direction:ltr;text-orientation:mixed;dominant-baseline:auto;baseline-shift:baseline;text-anchor:start;white-space:normal;shape-padding:0;clip-rule:nonzero;display:inline;overflow:visible;visibility:visible;opacity:1;isolation:auto;mix-blend-mode:normal;color-interpolation:sRGB;color-interpolation-filters:linearRGB;solid-color:#000000;solid-opacity:1;vector-effect:none;fill:#ffffff;fill-opacity:1;fill-rule:nonzero;stroke:none;stroke-width:0.264583px;stroke-linecap:butt;stroke-linejoin:miter;stroke-miterlimit:4;stroke-dasharray:none;stroke-dashoffset:0;stroke-opacity:1;color-rendering:auto;image-rendering:auto;shape-rendering:auto;text-rendering:auto;enable-background:accumulate" transform="matrix(0.9999999999999999, 0, 0, 0.9999999999999999, -5.684341886080802e-14, 0)"/>
</svg>