<?xml version="1.0" encoding="utf-8"?>
<svg xmlns="http://www.w3.org/2000/svg" viewBox="328.891 248.084 571.131 892.896" width="571.131mm" height="892.896mm">
  <path id="path898-3" d="M 386.354 248.084 C 354.749 248.084 328.891 273.941 328.891 305.547 L 328.891 1083.52 C 328.891 1115.12 354.749 1140.98 386.354 1140.98 L 842.559 1140.98 C 874.165 1140.98 900.022 1115.12 900.022 1083.52 L 900.022 305.547 C 900.022 273.941 874.165 248.084 842.559 248.084 L 386.354 248.084 Z" style="color:#000000;font-style:normal;font-variant:normal;font-weight:normal;font-stretch:normal;font-size:medium;line-height:normal;font-family:sans-serif;font-variant-ligatures:normal;font-variant-position:normal;font-variant-caps:normal;font-variant-numeric:normal;font-variant-alternates:normal;font-feature-settings:normal;text-indent:0;text-align:start;text-decoration:none;text-decoration-line:none;text-decoration-style:solid;text-decoration-color:#000000;letter-spacing:normal;word-spacing:normal;text-transform:none;writing-mode:lr-tb;direction:ltr;text-orientation:mixed;dominant-baseline:auto;baseline-shift:baseline;text-anchor:start;white-space:normal;shape-padding:0;clip-rule:nonzero;display:inline;overflow:visible;visibility:visible;opacity:1;isolation:auto;mix-blend-mode:normal;color-interpolation:sRGB;color-interpolation-filters:linearRGB;solid-color:#000000;solid-opacity:1;vector-effect:none;fill:#ffffff;fill-opacity:1;fill-rule:nonzero;stroke:none;stroke-width:26.4583;stroke-linecap:round;stroke-linejoin:round;stroke-miterlimit:4;stroke-dasharray:none;stroke-dashoffset:0;stroke-opacity:1;paint-order:fill markers stroke;color-rendering:auto;image-rendering:auto;shape-rendering:auto;text-rendering:auto;enable-background:accumulate"/>
  <path style="color: rgb(0, 0, 0); font-style: normal; font-variant: normal; font-weight: normal; font-stretch: normal; font-size: medium; line-height: normal; font-family: sans-serif; font-feature-settings: normal; text-indent: 0px; text-align: start; text-decoration: none solid rgb(0, 0, 0); letter-spacing: normal; word-spacing: normal; text-transform: none; writing-mode: lr-tb; direction: ltr; text-orientation: mixed; dominant-baseline: auto; baseline-shift: baseline; text-anchor: start; white-space: normal; clip-rule: nonzero; display: inline; overflow: visible; visibility: visible; opacity: 1; isolation: auto; mix-blend-mode: normal; color-interpolation: srgb; color-interpolation-filters: linearrgb; vector-effect: none; fill-opacity: 1; fill-rule: nonzero; stroke: none; stroke-width: 26.4583; stroke-linecap: round; stroke-linejoin: round; stroke-miterlimit: 4; stroke-dasharray: none; stroke-dashoffset: 0; stroke-opacity: 1; paint-order: fill markers; color-rendering: auto; image-rendering: auto; shape-rendering: auto; text-rendering: auto; fill: rgb(255, 0, 0);" d="M 386.565 274.477 L 842.769 274.477 C 860.175 274.477 873.774 288.076 873.774 305.482 L 873.774 403.13 L 355.559 487.662 L 355.559 305.482 C 355.559 288.076 369.159 274.477 386.565 274.477 L 386.565 274.477 Z" id="path889-0"/>
  <path style="color: rgb(0, 0, 0); font-style: normal; font-variant: normal; font-weight: normal; font-stretch: normal; font-size: medium; line-height: normal; font-family: sans-serif; font-feature-settings: normal; text-indent: 0px; text-align: start; text-decoration: none solid rgb(0, 0, 0); letter-spacing: normal; word-spacing: normal; text-transform: none; writing-mode: lr-tb; direction: ltr; text-orientation: mixed; dominant-baseline: auto; baseline-shift: baseline; text-anchor: start; white-space: normal; clip-rule: nonzero; display: inline; overflow: visible; visibility: visible; opacity: 1; isolation: auto; mix-blend-mode: normal; color-interpolation: srgb; color-interpolation-filters: linearrgb; vector-effect: none; fill-opacity: 1; fill-rule: nonzero; stroke: none; stroke-width: 26.4583; stroke-linecap: round; stroke-linejoin: round; stroke-miterlimit: 4; stroke-dasharray: none; stroke-dashoffset: 0; stroke-opacity: 1; color-rendering: auto; image-rendering: auto; shape-rendering: auto; text-rendering: auto; paint-order: fill markers; fill: rgb(255, 0, 0);" d="M 873.774 908.708 L 873.774 1083.45 C 873.774 1100.86 860.175 1114.46 842.769 1114.46 L 386.565 1114.46 C 369.159 1114.46 355.559 1100.86 355.559 1083.45 L 355.559 993.239 L 873.774 908.708 Z" id="rect4529-7"/>
  <path style="color: rgb(0, 0, 0); font-style: normal; font-variant: normal; font-weight: normal; font-stretch: normal; font-size: medium; line-height: normal; font-family: sans-serif; font-feature-settings: normal; text-indent: 0px; text-align: start; text-decoration: none solid rgb(0, 0, 0); letter-spacing: normal; word-spacing: normal; text-transform: none; writing-mode: lr-tb; direction: ltr; text-orientation: mixed; dominant-baseline: auto; baseline-shift: baseline; text-anchor: start; white-space: normal; clip-rule: nonzero; display: inline; overflow: visible; visibility: visible; opacity: 1; isolation: auto; mix-blend-mode: normal; color-interpolation: srgb; color-interpolation-filters: linearrgb; vector-effect: none; fill-opacity: 1; fill-rule: nonzero; stroke: none; stroke-width: 0.264583px; stroke-linecap: butt; stroke-linejoin: miter; stroke-miterlimit: 4; stroke-dasharray: none; stroke-dashoffset: 0; stroke-opacity: 1; color-rendering: auto; image-rendering: auto; shape-rendering: auto; text-rendering: auto; fill: rgb(255, 0, 0);" d="M 632.393 518.743 C 631.204 518.733 630.015 518.743 628.826 518.767 C 597.123 519.392 565.393 530.946 541.557 549.101 C 510.08 573.078 487.21 605.935 485.647 664.664 L 485.647 664.824 L 577.087 649.538 L 577.05 649.398 C 569.774 622.275 583.669 600.044 603.153 593.966 C 613.95 590.598 622.065 591.668 628.317 595.14 C 634.57 598.613 638.965 604.5 642.28 610.793 C 648.795 623.159 648.91 638.136 645.3 652.835 C 641.69 667.535 634.356 681.952 625.993 693.185 C 580.51 754.282 483.54 877.599 483.54 877.599 L 483.333 877.863 L 745.438 837.167 L 742.754 764.738 L 636.069 781.808 C 636.399 781.437 671.938 741.552 689.807 721.951 C 712.694 696.845 730.678 664.005 734.208 630.203 C 738.764 586.566 717.627 546.692 684.155 530.378 C 667.946 522.478 650.222 518.856 632.397 518.743 L 632.393 518.743 Z" id="path926-8"/>
  <path id="path929-0" d="M 424.078 304.013 C 423.7 304.013 423.321 304.013 422.942 304.024 C 412.838 304.223 402.724 307.906 395.128 313.692 C 385.095 321.334 377.806 331.806 377.308 350.524 L 377.307 350.575 L 406.45 345.703 L 406.438 345.658 C 404.119 337.013 408.548 329.928 414.758 327.991 C 418.199 326.918 420.786 327.258 422.778 328.365 C 424.771 329.472 426.172 331.348 427.229 333.354 C 429.305 337.295 429.342 342.069 428.191 346.754 C 427.04 351.439 424.703 356.034 422.038 359.614 C 407.541 379.087 376.635 418.39 376.635 418.39 L 376.569 418.474 L 460.107 405.504 L 459.252 382.419 L 425.249 387.859 C 425.354 387.741 436.681 375.029 442.376 368.782 C 449.671 360.78 455.403 350.314 456.528 339.54 C 457.98 325.632 451.243 312.924 440.575 307.724 C 435.409 305.207 429.76 304.052 424.079 304.016 L 424.078 304.013 Z" style="color:#000000;font-style:normal;font-variant:normal;font-weight:normal;font-stretch:normal;font-size:medium;line-height:normal;font-family:sans-serif;font-variant-ligatures:normal;font-variant-position:normal;font-variant-caps:normal;font-variant-numeric:normal;font-variant-alternates:normal;font-feature-settings:normal;text-indent:0;text-align:start;text-decoration:none;text-decoration-line:none;text-decoration-style:solid;text-decoration-color:#000000;letter-spacing:normal;word-spacing:normal;text-transform:none;writing-mode:lr-tb;direction:ltr;text-orientation:mixed;dominant-baseline:auto;baseline-shift:baseline;text-anchor:start;white-space:normal;shape-padding:0;clip-rule:nonzero;display:inline;overflow:visible;visibility:visible;opacity:1;isolation:auto;mix-blend-mode:normal;color-interpolation:sRGB;color-interpolation-filters:linearRGB;solid-color:#000000;solid-opacity:1;vector-effect:none;fill:#ffffff;fill-opacity:1;fill-rule:nonzero;stroke:none;stroke-width:0.264583px;stroke-linecap:butt;stroke-linejoin:miter;stroke-miterlimit:4;stroke-dasharray:none;stroke-dashoffset:0;stroke-opacity:1;color-rendering:auto;image-rendering:auto;shape-rendering:auto;text-rendering:auto;enable-background:accumulate"/>
  <path style="color:#000000;font-style:normal;font-variant:normal;font-weight:normal;font-stretch:normal;font-size:medium;line-height:normal;font-family:sans-serif;font-variant-ligatures:normal;font-variant-position:normal;font-variant-caps:normal;font-variant-numeric:normal;font-variant-alternates:normal;font-feature-settings:normal;text-indent:0;text-align:start;text-decoration:none;text-decoration-line:none;text-decoration-style:solid;text-decoration-color:#000000;letter-spacing:normal;word-spacing:normal;text-transform:none;writing-mode:lr-tb;direction:ltr;text-orientation:mixed;dominant-baseline:auto;baseline-shift:baseline;text-anchor:start;white-space:normal;shape-padding:0;clip-rule:nonzero;display:inline;overflow:visible;visibility:visible;opacity:1;isolation:auto;mix-blend-mode:normal;color-interpolation:sRGB;color-interpolation-filters:linearRGB;solid-color:#000000;solid-opacity:1;vector-effect:none;fill:#ffffff;fill-opacity:1;fill-rule:nonzero;stroke:none;stroke-width:0.264583px;stroke-linecap:butt;stroke-linejoin:miter;stroke-miterlimit:4;stroke-dasharray:none;stroke-dashoffset:0;stroke-opacity:1;color-rendering:auto;image-rendering:auto;shape-rendering:auto;text-rendering:auto;enable-background:accumulate" d="M 822.382 308.562 C 822.137 308.562 821.893 308.562 821.648 308.572 C 815.125 308.7 808.596 311.078 803.692 314.813 C 797.215 319.747 792.509 326.507 792.188 338.591 L 792.187 338.624 L 811.001 335.479 L 810.991 335.45 C 809.494 329.869 812.353 325.295 816.363 324.045 C 818.584 323.352 820.254 323.572 821.54 324.286 C 822.827 325.001 823.731 326.212 824.413 327.507 C 825.754 330.051 825.777 333.133 825.035 336.157 C 824.292 339.182 822.783 342.148 821.062 344.46 C 811.704 357.031 791.751 382.405 791.751 382.405 L 791.708 382.459 L 845.639 374.085 L 845.086 359.182 L 823.135 362.694 C 823.203 362.618 830.515 354.411 834.192 350.378 C 838.901 345.213 842.602 338.455 843.328 331.5 C 844.265 322.522 839.916 314.317 833.029 310.961 C 829.694 309.335 826.047 308.59 822.379 308.566 L 822.382 308.562 Z" id="path931-7"/>
  <path style="color:#000000;font-style:normal;font-variant:normal;font-weight:normal;font-stretch:normal;font-size:medium;line-height:normal;font-family:sans-serif;font-variant-ligatures:normal;font-variant-position:normal;font-variant-caps:normal;font-variant-numeric:normal;font-variant-alternates:normal;font-feature-settings:normal;text-indent:0;text-align:start;text-decoration:none;text-decoration-line:none;text-decoration-style:solid;text-decoration-color:#000000;letter-spacing:normal;word-spacing:normal;text-transform:none;writing-mode:lr-tb;direction:ltr;text-orientation:mixed;dominant-baseline:auto;baseline-shift:baseline;text-anchor:start;white-space:normal;shape-padding:0;clip-rule:nonzero;display:inline;overflow:visible;visibility:visible;opacity:1;isolation:auto;mix-blend-mode:normal;color-interpolation:sRGB;color-interpolation-filters:linearRGB;solid-color:#000000;solid-opacity:1;vector-effect:none;fill:#ffffff;fill-opacity:1;fill-rule:nonzero;stroke:none;stroke-width:0.264583px;stroke-linecap:butt;stroke-linejoin:miter;stroke-miterlimit:4;stroke-dasharray:none;stroke-dashoffset:0;stroke-opacity:1;color-rendering:auto;image-rendering:auto;shape-rendering:auto;text-rendering:auto;enable-background:accumulate" d="M 782.657 1101.45 C 783.065 1101.45 783.472 1101.45 783.88 1101.44 C 794.747 1101.22 805.624 1097.26 813.795 1091.04 C 824.585 1082.82 832.425 1071.56 832.961 1051.42 L 832.961 1051.37 L 801.616 1056.61 L 801.629 1056.66 C 804.123 1065.95 799.36 1073.58 792.681 1075.66 C 788.98 1076.81 786.198 1076.45 784.055 1075.26 C 781.911 1074.07 780.405 1072.05 779.268 1069.89 C 777.035 1065.65 776.996 1060.52 778.233 1055.48 C 779.471 1050.44 781.985 1045.5 784.851 1041.65 C 800.443 1020.7 833.683 978.431 833.683 978.431 L 833.754 978.341 L 743.906 992.291 L 744.826 1017.12 L 781.397 1011.27 C 781.284 1011.39 769.102 1025.07 762.976 1031.79 C 755.131 1040.39 748.966 1051.65 747.756 1063.24 C 746.194 1078.19 753.44 1091.86 764.914 1097.46 C 770.47 1100.16 776.546 1101.41 782.656 1101.44 L 782.657 1101.45 Z" id="path933-1"/>
  <path id="path935-5" d="M 395.548 1087.36 C 395.792 1087.36 396.037 1087.36 396.281 1087.35 C 402.805 1087.22 409.333 1084.85 414.238 1081.11 C 420.714 1076.18 425.42 1069.42 425.742 1057.34 L 425.742 1057.3 L 406.928 1060.45 L 406.938 1060.48 C 408.435 1066.06 405.576 1070.63 401.567 1071.88 C 399.345 1072.57 397.676 1072.35 396.389 1071.64 C 395.103 1070.92 394.198 1069.71 393.516 1068.42 C 392.176 1065.88 392.152 1062.79 392.895 1059.77 C 393.638 1056.74 395.147 1053.78 396.867 1051.47 C 406.226 1038.89 426.178 1013.52 426.178 1013.52 L 426.221 1013.47 L 372.291 1021.84 L 372.843 1036.74 L 394.795 1033.23 C 394.727 1033.31 387.414 1041.52 383.737 1045.55 C 379.028 1050.71 375.328 1057.47 374.602 1064.43 C 373.664 1073.4 378.013 1081.61 384.9 1084.96 C 388.236 1086.59 391.882 1087.34 395.55 1087.36 L 395.548 1087.36 Z" style="color:#000000;font-style:normal;font-variant:normal;font-weight:normal;font-stretch:normal;font-size:medium;line-height:normal;font-family:sans-serif;font-variant-ligatures:normal;font-variant-position:normal;font-variant-caps:normal;font-variant-numeric:normal;font-variant-alternates:normal;font-feature-settings:normal;text-indent:0;text-align:start;text-decoration:none;text-decoration-line:none;text-decoration-style:solid;text-decoration-color:#000000;letter-spacing:normal;word-spacing:normal;text-transform:none;writing-mode:lr-tb;direction:ltr;text-orientation:mixed;dominant-baseline:auto;baseline-shift:baseline;text-anchor:start;white-space:normal;shape-padding:0;clip-rule:nonzero;display:inline;overflow:visible;visibility:visible;opacity:1;isolation:auto;mix-blend-mode:normal;color-interpolation:sRGB;color-interpolation-filters:linearRGB;solid-color:#000000;solid-opacity:1;vector-effect:none;fill:#ffffff;fill-opacity:1;fill-rule:nonzero;stroke:none;stroke-width:0.264583px;stroke-linecap:butt;stroke-linejoin:miter;stroke-miterlimit:4;stroke-dasharray:none;stroke-dashoffset:0;stroke-opacity:1;color-rendering:auto;image-rendering:auto;shape-rendering:auto;text-rendering:auto;enable-background:accumulate"/>
</svg>